<svg width="303" height="185" viewBox="0 0 303 185" fill="none" xmlns="http://www.w3.org/2000/svg">
<path d="M50.32 53H130.36C134.44 53 138.16 54 141.52 56C144.96 57.92 147.68 60.6 149.68 64.04C151.68 67.4 152.68 71.12 152.68 75.2C152.68 79.12 151.72 82.84 149.8 86.36C147.88 89.88 145.32 92.72 142.12 94.88C145.32 97.12 147.88 100.04 149.8 103.64C151.72 107.16 152.68 110.88 152.68 114.8C152.68 118.8 151.68 122.52 149.68 125.96C147.68 129.32 144.96 132 141.52 134C138.16 136 134.44 137 130.36 137H50.32V53ZM94.24 91.52C97.12 91.52 99.76 90.84 102.16 89.48C104.64 88.04 106.56 86.12 107.92 83.72C109.36 81.24 110.08 78.6 110.08 75.8C110.08 72.92 109.36 70.28 107.92 67.88C106.56 65.4 104.64 63.44 102.16 62C99.76 60.56 97.12 59.84 94.24 59.84H92.44V91.4C92.84 91.48 93.44 91.52 94.24 91.52ZM94.24 130.04C97.12 130.04 99.76 129.36 102.16 128C104.64 126.56 106.56 124.64 107.92 122.24C109.36 119.76 110.08 117.08 110.08 114.2C110.08 111.4 109.36 108.8 107.92 106.4C106.56 103.92 104.64 102 102.16 100.64C99.76 99.2 97.12 98.48 94.24 98.48H92.44V129.92C92.84 130 93.44 130.04 94.24 130.04ZM157.468 53H196.588V137H157.468V53ZM201.005 94.88C201.005 80.72 204.485 70.2 211.445 63.32C215.925 58.84 220.925 55.88 226.445 54.44C231.965 53 239.205 52.28 248.165 52.28C256.485 52.28 263.165 52.88 268.205 54.08C273.325 55.2 277.525 57.64 280.805 61.4C283.525 64.52 285.645 68.32 287.165 72.8C288.765 77.2 289.685 81.52 289.925 85.76H283.085C282.765 82.16 281.885 78.48 280.445 74.72C279.085 70.88 276.925 67.6 273.965 64.88C271.005 62.08 267.245 60.68 262.685 60.68C258.445 60.68 254.925 62.56 252.125 66.32C249.725 69.6 248.005 73.96 246.965 79.4C246.005 84.2 245.525 89.36 245.525 94.88C245.525 103.92 246.645 111.48 248.885 117.56C251.845 125.32 256.445 129.2 262.685 129.2V95.96H299.405V137C287.885 137 274.845 137.16 260.285 137.48L248.165 137.6C239.365 137.6 232.205 136.76 226.685 135.08C221.245 133.32 216.565 130.48 212.645 126.56C204.885 118.8 201.005 108.24 201.005 94.88Z" fill="black"/>
<path d="M20.745 174.65H23.895C24.345 174.65 24.57 174.425 24.57 173.975V146.525C24.57 146.075 24.345 145.85 23.895 145.85H20.745C20.295 145.85 20.07 145.625 20.07 145.175C20.07 144.725 20.295 144.5 20.745 144.5H25.695C26.235 144.5 26.61 144.725 26.82 145.175L39.42 173.075C39.72 173.675 40.02 173.675 40.32 173.075L52.92 145.175C53.13 144.725 53.505 144.5 54.045 144.5H58.995C59.445 144.5 59.67 144.725 59.67 145.175C59.67 145.625 59.445 145.85 58.995 145.85H55.845C55.395 145.85 55.17 146.075 55.17 146.525V173.975C55.17 174.425 55.395 174.65 55.845 174.65H58.995C59.445 174.65 59.67 174.875 59.67 175.325C59.67 175.775 59.445 176 58.995 176H50.445C49.995 176 49.77 175.775 49.77 175.325C49.77 174.875 49.995 174.65 50.445 174.65H53.145C53.595 174.65 53.82 174.425 53.82 173.975V147.65C53.82 147.35 53.76 147.23 53.64 147.29C53.58 147.29 53.52 147.335 53.46 147.425L40.86 175.325C40.62 175.775 40.29 176 39.87 176C39.45 176 39.12 175.775 38.88 175.325L26.28 147.425C26.16 147.245 26.07 147.2 26.01 147.29C25.95 147.38 25.92 147.5 25.92 147.65V173.975C25.92 174.425 26.145 174.65 26.595 174.65H29.295C29.745 174.65 29.97 174.875 29.97 175.325C29.97 175.775 29.745 176 29.295 176H20.745C20.295 176 20.07 175.775 20.07 175.325C20.07 174.875 20.295 174.65 20.745 174.65ZM62.2206 176C61.7706 176 61.5456 175.775 61.5456 175.325C61.5456 174.875 61.7706 174.65 62.2206 174.65H65.3706C65.8206 174.65 66.0456 174.425 66.0456 173.975V146.525C66.0456 146.075 65.8206 145.85 65.3706 145.85H62.2206C61.7706 145.85 61.5456 145.625 61.5456 145.175C61.5456 144.725 61.7706 144.5 62.2206 144.5H83.5956C84.0456 144.5 84.2706 144.725 84.2706 145.175V151.475C84.2706 151.925 84.0456 152.15 83.5956 152.15C83.1456 152.15 82.9206 151.925 82.9206 151.475V146.525C82.9206 146.075 82.6956 145.85 82.2456 145.85H68.0706C67.6206 145.85 67.3956 146.075 67.3956 146.525V158.675C67.3956 159.125 67.6206 159.35 68.0706 159.35H78.1956C78.6456 159.35 78.8706 159.125 78.8706 158.675V156.425C78.8706 155.975 79.0956 155.75 79.5456 155.75C79.9956 155.75 80.2206 155.975 80.2206 156.425V163.625C80.2206 164.075 79.9956 164.3 79.5456 164.3C79.0956 164.3 78.8706 164.075 78.8706 163.625V161.375C78.8706 160.925 78.6456 160.7 78.1956 160.7H68.0706C67.6206 160.7 67.3956 160.925 67.3956 161.375V173.975C67.3956 174.425 67.6206 174.65 68.0706 174.65H82.6956C83.1456 174.65 83.3706 174.425 83.3706 173.975V169.025C83.3706 168.575 83.5956 168.35 84.0456 168.35C84.4956 168.35 84.7206 168.575 84.7206 169.025V175.325C84.7206 175.775 84.4956 176 84.0456 176H62.2206ZM87.6122 174.65H90.7622C91.2122 174.65 91.4372 174.425 91.4372 173.975V146.525C91.4372 146.075 91.2122 145.85 90.7622 145.85H87.6122C87.1622 145.85 86.9372 145.625 86.9372 145.175C86.9372 144.725 87.1622 144.5 87.6122 144.5H92.5622C93.0422 144.5 93.4172 144.725 93.6872 145.175L112.137 173.3C112.197 173.42 112.287 173.48 112.407 173.48C112.527 173.45 112.587 173.315 112.587 173.075V146.525C112.587 146.075 112.362 145.85 111.912 145.85H109.212C108.762 145.85 108.537 145.625 108.537 145.175C108.537 144.725 108.762 144.5 109.212 144.5H117.762C118.212 144.5 118.437 144.725 118.437 145.175C118.437 145.625 118.212 145.85 117.762 145.85H114.612C114.162 145.85 113.937 146.075 113.937 146.525V173.975C113.937 174.425 114.162 174.65 114.612 174.65H117.762C118.212 174.65 118.437 174.875 118.437 175.325C118.437 175.775 118.212 176 117.762 176H112.812C112.332 176 111.957 175.775 111.687 175.325L93.2372 147.2C93.1772 147.08 93.0872 147.035 92.9672 147.065C92.8472 147.065 92.7872 147.185 92.7872 147.425V173.975C92.7872 174.425 93.0122 174.65 93.4622 174.65H96.1622C96.6122 174.65 96.8372 174.875 96.8372 175.325C96.8372 175.775 96.6122 176 96.1622 176H87.6122C87.1622 176 86.9372 175.775 86.9372 175.325C86.9372 174.875 87.1622 174.65 87.6122 174.65ZM119.119 151.7V145.175C119.119 144.725 119.344 144.5 119.794 144.5H144.094C144.544 144.5 144.769 144.725 144.769 145.175V151.7C144.769 152.15 144.544 152.375 144.094 152.375C143.644 152.375 143.419 152.15 143.419 151.7V146.525C143.419 146.075 143.194 145.85 142.744 145.85H133.294C132.844 145.85 132.619 146.075 132.619 146.525V173.975C132.619 174.425 132.844 174.65 133.294 174.65H136.444C136.894 174.65 137.119 174.875 137.119 175.325C137.119 175.775 136.894 176 136.444 176H127.444C126.994 176 126.769 175.775 126.769 175.325C126.769 174.875 126.994 174.65 127.444 174.65H130.594C131.044 174.65 131.269 174.425 131.269 173.975V146.525C131.269 146.075 131.044 145.85 130.594 145.85H121.144C120.694 145.85 120.469 146.075 120.469 146.525V151.7C120.469 152.15 120.244 152.375 119.794 152.375C119.344 152.375 119.119 152.15 119.119 151.7ZM157.967 146.975C157.907 146.795 157.817 146.705 157.697 146.705C157.577 146.705 157.487 146.795 157.427 146.975L151.262 162.995C151.022 163.445 151.187 163.67 151.757 163.67H163.637C164.177 163.67 164.342 163.445 164.132 162.995L157.967 146.975ZM165.167 165.65C164.987 165.23 164.627 165.02 164.087 165.02H151.307C150.767 165.02 150.407 165.23 150.227 165.65L147.032 173.975C146.792 174.425 146.942 174.65 147.482 174.65H150.182C150.632 174.65 150.857 174.875 150.857 175.325C150.857 175.775 150.632 176 150.182 176H141.632C141.182 176 140.957 175.775 140.957 175.325C140.957 174.875 141.182 174.65 141.632 174.65H144.557C144.917 174.65 145.217 174.425 145.457 173.975L156.707 144.725C156.827 144.275 157.157 144.05 157.697 144.05C158.237 144.05 158.567 144.275 158.687 144.725L169.937 173.975C170.147 174.425 170.447 174.65 170.837 174.65H173.762C174.212 174.65 174.437 174.875 174.437 175.325C174.437 175.775 174.212 176 173.762 176H165.212C164.762 176 164.537 175.775 164.537 175.325C164.537 174.875 164.762 174.65 165.212 174.65H167.912C168.422 174.65 168.572 174.425 168.362 173.975L165.167 165.65ZM174.466 176C174.016 176 173.791 175.775 173.791 175.325C173.791 174.875 174.016 174.65 174.466 174.65H177.616C178.066 174.65 178.291 174.425 178.291 173.975V146.525C178.291 146.075 178.066 145.85 177.616 145.85H174.466C174.016 145.85 173.791 145.625 173.791 145.175C173.791 144.725 174.016 144.5 174.466 144.5H184.366C184.816 144.5 185.041 144.725 185.041 145.175C185.041 145.625 184.816 145.85 184.366 145.85H180.316C179.866 145.85 179.641 146.075 179.641 146.525V173.975C179.641 174.425 179.866 174.65 180.316 174.65H194.716C195.166 174.65 195.391 174.425 195.391 173.975V169.025C195.391 168.575 195.616 168.35 196.066 168.35C196.516 168.35 196.741 168.575 196.741 169.025V175.325C196.741 175.775 196.516 176 196.066 176H174.466ZM217.741 176C217.291 176 217.066 175.775 217.066 175.325C217.066 174.875 217.291 174.65 217.741 174.65H220.891C221.341 174.65 221.566 174.425 221.566 173.975V146.525C221.566 146.075 221.341 145.85 220.891 145.85H217.741C217.291 145.85 217.066 145.625 217.066 145.175C217.066 144.725 217.291 144.5 217.741 144.5H222.241C222.691 144.5 222.916 144.725 222.916 145.175V173.975C222.916 174.425 223.141 174.65 223.591 174.65H226.741C227.191 174.65 227.416 174.875 227.416 175.325C227.416 175.775 227.191 176 226.741 176H217.741ZM231.093 173.21C229.053 171.05 228.033 168.23 228.033 164.75C228.033 161.27 229.053 158.45 231.093 156.29C233.133 154.13 235.788 153.05 239.058 153.05C242.328 153.05 244.983 154.13 247.023 156.29C249.063 158.45 250.083 161.27 250.083 164.75C250.083 168.23 249.063 171.05 247.023 173.21C244.983 175.37 242.328 176.45 239.058 176.45C235.788 176.45 233.133 175.37 231.093 173.21ZM239.058 154.4C236.148 154.4 233.808 155.345 232.038 157.235C230.268 159.125 229.383 161.645 229.383 164.795C229.383 167.915 230.253 170.42 231.993 172.31C233.763 174.17 236.118 175.1 239.058 175.1C241.998 175.1 244.338 174.17 246.078 172.31C247.848 170.42 248.733 167.915 248.733 164.795C248.733 161.645 247.848 159.125 246.078 157.235C244.308 155.345 241.968 154.4 239.058 154.4ZM269.064 164.975C269.064 164.525 268.839 164.3 268.389 164.3H260.964C258.354 164.3 256.419 164.81 255.159 165.83C253.929 166.85 253.314 168.155 253.314 169.745C253.314 171.305 253.884 172.595 255.024 173.615C256.194 174.605 257.949 175.1 260.289 175.1C263.199 175.1 265.764 173.63 267.984 170.69C268.374 170.18 268.734 169.625 269.064 169.025V164.975ZM262.044 153.05C264.564 153.05 266.589 153.77 268.119 155.21C269.649 156.62 270.414 158.375 270.414 160.475V173.975C270.414 174.425 270.639 174.65 271.089 174.65H274.239C274.689 174.65 274.914 174.875 274.914 175.325C274.914 175.775 274.689 176 274.239 176H269.739C269.289 176 269.064 175.775 269.064 175.325V172.805C269.064 172.505 269.004 172.295 268.884 172.175C268.764 172.055 268.584 172.115 268.344 172.355C267.534 173.375 266.409 174.32 264.969 175.19C263.529 176.03 262.029 176.45 260.469 176.45C257.679 176.45 255.564 175.835 254.124 174.605C252.684 173.345 251.964 171.725 251.964 169.745C251.964 167.765 252.789 166.145 254.439 164.885C256.089 163.595 258.264 162.95 260.964 162.95H268.389C268.839 162.95 269.064 162.725 269.064 162.275V160.475C269.064 158.735 268.404 157.295 267.084 156.155C265.764 154.985 264.144 154.4 262.224 154.4C260.304 154.4 258.729 154.67 257.499 155.21C256.269 155.72 255.399 156.17 254.889 156.56C254.409 156.95 254.034 156.965 253.764 156.605C253.524 156.245 253.569 155.945 253.899 155.705C256.059 153.935 258.774 153.05 262.044 153.05ZM294.771 146.525C294.771 146.075 294.546 145.85 294.096 145.85H290.496C290.046 145.85 289.821 145.625 289.821 145.175C289.821 144.725 290.046 144.5 290.496 144.5H295.446C295.896 144.5 296.121 144.725 296.121 145.175V173.975C296.121 174.425 296.346 174.65 296.796 174.65H299.946C300.396 174.65 300.621 174.875 300.621 175.325C300.621 175.775 300.396 176 299.946 176H295.446C294.996 176 294.771 175.775 294.771 175.325V172.805C294.771 172.505 294.711 172.295 294.591 172.175C294.471 172.055 294.291 172.115 294.051 172.355C293.301 173.345 292.191 174.275 290.721 175.145C289.281 176.015 287.721 176.45 286.041 176.45C282.861 176.45 280.371 175.415 278.571 173.345C276.771 171.245 275.871 168.395 275.871 164.795C275.871 161.195 276.936 158.42 279.066 156.47C281.226 154.49 284.211 153.5 288.021 153.5H294.096C294.546 153.5 294.771 153.275 294.771 152.825V146.525ZM294.771 155.525C294.771 155.075 294.546 154.85 294.096 154.85H288.021C284.601 154.85 281.946 155.69 280.056 157.37C278.166 159.05 277.221 161.525 277.221 164.795C277.221 168.035 278.001 170.57 279.561 172.4C281.151 174.2 283.191 175.1 285.681 175.1C288.201 175.1 290.466 174.095 292.476 172.085C293.316 171.245 294.081 170.225 294.771 169.025V155.525Z" fill="black"/>
<path d="M39.21 130.645C37.05 132.685 34.23 133.705 30.75 133.705C27.27 133.705 24.45 132.685 22.29 130.645C20.13 128.605 19.05 125.95 19.05 122.68C19.05 119.41 20.13 116.755 22.29 114.715C24.45 112.675 27.27 111.655 30.75 111.655C34.23 111.655 37.05 112.675 39.21 114.715C41.37 116.755 42.45 119.41 42.45 122.68C42.45 125.95 41.37 128.605 39.21 130.645ZM20.4 122.68C20.4 125.59 21.345 127.93 23.235 129.7C25.125 131.47 27.645 132.355 30.795 132.355C33.915 132.355 36.42 131.485 38.31 129.745C40.17 127.975 41.1 125.62 41.1 122.68C41.1 119.74 40.17 117.4 38.31 115.66C36.42 113.89 33.915 113.005 30.795 113.005C27.645 113.005 25.125 113.89 23.235 115.66C21.345 117.43 20.4 119.77 20.4 122.68ZM40.65 107.382V104.232C40.65 103.782 40.425 103.557 39.975 103.557H21.525C21.075 103.557 20.85 103.782 20.85 104.232V107.382C20.85 107.832 20.625 108.057 20.175 108.057C19.725 108.057 19.5 107.832 19.5 107.382V102.882C19.5 102.432 19.725 102.207 20.175 102.207H22.695C22.995 102.207 23.205 102.147 23.325 102.027C23.445 101.907 23.385 101.727 23.145 101.487C20.415 99.0568 19.05 96.4168 19.05 93.5668C19.05 90.7168 19.83 88.5268 21.39 86.9968C22.92 85.4368 25.14 84.6568 28.05 84.6568H39.975C40.425 84.6568 40.65 84.4318 40.65 83.9818V80.8318C40.65 80.3818 40.875 80.1568 41.325 80.1568C41.775 80.1568 42 80.3818 42 80.8318V89.3818C42 89.8318 41.775 90.0568 41.325 90.0568C40.875 90.0568 40.65 89.8318 40.65 89.3818V86.6818C40.65 86.2318 40.425 86.0068 39.975 86.0068H28.05C25.5 86.0068 23.595 86.6668 22.335 87.9868C21.045 89.3068 20.4 91.1068 20.4 93.3868C20.4 95.6668 21.42 97.8268 23.46 99.8668C24.36 100.767 25.365 101.547 26.475 102.207H39.975C40.425 102.207 40.65 101.982 40.65 101.532V98.8318C40.65 98.3818 40.875 98.1568 41.325 98.1568C41.775 98.1568 42 98.3818 42 98.8318V107.382C42 107.832 41.775 108.057 41.325 108.057C40.875 108.057 40.65 107.832 40.65 107.382ZM38.85 59.8579C38.49 59.3779 38.19 59.0179 37.95 58.7779C37.71 58.5079 37.635 58.2979 37.725 58.1479C37.785 57.9979 37.95 57.8179 38.22 57.6079C38.46 57.3679 38.73 57.4279 39.03 57.7879C39.96 58.8679 40.77 60.1129 41.46 61.5229C42.12 62.9329 42.45 64.7329 42.45 66.9229C42.45 70.1029 41.355 72.6679 39.165 74.6179C36.975 76.5379 34.17 77.4979 30.75 77.4979C27.33 77.4979 24.525 76.5379 22.335 74.6179C20.145 72.6679 19.05 70.1329 19.05 67.0129C19.05 63.8629 20.04 61.2979 22.02 59.3179C24 57.3379 26.385 56.3479 29.175 56.3479H29.85C30.75 56.3479 31.2 56.7979 31.2 57.6979V75.4279C31.2 75.9379 31.425 76.1629 31.875 76.1029C34.485 75.9229 36.675 75.0379 38.445 73.4479C40.215 71.8279 41.1 69.6229 41.1 66.8329C41.1 64.0129 40.35 61.6879 38.85 59.8579ZM29.31 76.0579C29.67 76.0579 29.85 75.8479 29.85 75.4279V58.3729C29.85 57.9229 29.625 57.6979 29.175 57.6979C26.775 57.6979 24.72 58.5829 23.01 60.3529C21.27 62.0929 20.4 64.3129 20.4 67.0129C20.4 69.6829 21.345 71.8579 23.235 73.5379C25.125 75.2179 27.15 76.0579 29.31 76.0579Z" fill="black"/>
</svg>
