<svg width="608" height="128" viewBox="0 0 608 128" fill="none" xmlns="http://www.w3.org/2000/svg">
<path fill-rule="evenodd" clip-rule="evenodd" d="M55.1127 55.1132L45.7631 20.2201C75.7624 -5.3019 97.8923 1.937 90.1088 45.7361L55.1127 55.1132Z" fill="#9A88CF"/>
<path fill-rule="evenodd" clip-rule="evenodd" d="M53.7158 55.4876L44.3662 20.5945C44.2215 20.0546 44.4006 19.4797 44.8263 19.1176C54.0431 11.2764 62.553 6.48694 69.7096 4.78991C74.7456 3.59576 79.1523 3.91392 82.7451 5.68427C86.3708 7.47074 89.2069 10.7408 90.9916 15.5851C93.5082 22.416 93.9292 32.515 91.5347 45.9891C91.4364 46.5422 91.027 46.9884 90.4844 47.1338L55.4883 56.511C54.7162 56.7179 53.9226 56.2597 53.7158 55.4876ZM56.1371 53.3405L88.8424 44.5772C90.5926 34.2939 90.6481 26.1196 89.2711 19.9999C87.9399 14.0837 85.2831 10.1617 81.4658 8.28072C78.4111 6.7756 74.659 6.59107 70.3774 7.60638C63.7388 9.18054 55.9125 13.6067 47.3999 20.7332L56.1371 53.3405Z" fill="black"/>
<path fill-rule="evenodd" clip-rule="evenodd" d="M55.1118 55.1131L90.0047 45.7636C115.527 75.7632 108.288 97.8932 64.4891 90.1095L55.1118 55.1131Z" fill="#561897"/>
<path fill-rule="evenodd" clip-rule="evenodd" d="M54.7394 53.7151L89.6323 44.3656C90.1721 44.2209 90.747 44.4 91.1092 44.8257C98.9503 54.0426 103.74 62.5526 105.437 69.7092C106.631 74.7453 106.313 79.1519 104.543 82.7449C102.756 86.3705 99.4861 89.2066 94.6418 90.9913C87.8109 93.5079 77.712 93.9289 64.238 91.5343C63.6849 91.436 63.2387 91.0266 63.0933 90.484L53.7161 55.4876C53.5092 54.7155 53.9673 53.922 54.7394 53.7151ZM56.8865 56.1364L65.6499 88.842C75.9332 90.5922 84.1074 90.6478 90.227 89.2708C96.1432 87.9396 100.065 85.2828 101.946 81.4655C103.451 78.4108 103.636 74.6587 102.62 70.377C101.046 63.7384 96.6201 55.912 89.4936 47.3993L56.8865 56.1364Z" fill="black"/>
<path fill-rule="evenodd" clip-rule="evenodd" d="M55.1119 55.1132L64.4615 90.0063C34.4622 115.528 12.3323 108.289 20.1158 64.4904L55.1119 55.1132Z" fill="#69B0BF"/>
<path fill-rule="evenodd" clip-rule="evenodd" d="M56.5108 54.7386L65.8604 89.6317C66.005 90.1716 65.8259 90.7465 65.4002 91.1086C56.1835 98.9498 47.6736 103.739 40.5169 105.436C35.481 106.63 31.0743 106.312 27.4814 104.542C23.8558 102.755 21.0197 99.4855 19.235 94.6412C16.7184 87.8102 16.2974 77.7112 18.6919 64.2371C18.7901 63.6841 19.1996 63.2378 19.7422 63.0924L54.7383 53.7152C55.5104 53.5084 56.3039 53.9665 56.5108 54.7386ZM54.0895 56.8857L21.3842 65.6491C19.634 75.9324 19.5785 84.1067 20.9554 90.2263C22.2866 96.1425 24.9434 100.065 28.7608 101.946C31.8155 103.451 35.5675 103.635 39.8491 102.62C46.4877 101.046 54.3141 96.6195 62.8266 89.4931L54.0895 56.8857Z" fill="black"/>
<path fill-rule="evenodd" clip-rule="evenodd" d="M55.1128 55.1131L20.2199 64.4626C-5.30203 34.4631 1.93673 12.3331 45.7355 20.1168L55.1128 55.1131Z" fill="#0C7EA1"/>
<path fill-rule="evenodd" clip-rule="evenodd" d="M55.4872 56.5112L20.5943 65.8607C20.0544 66.0054 19.4795 65.8263 19.1174 65.4006C11.2762 56.1837 6.48676 47.6737 4.78971 40.517C3.59555 35.481 3.91369 31.0743 5.68402 27.4814C7.47047 23.8558 10.7405 21.0197 15.5847 19.235C22.4156 16.7184 32.5145 16.2974 45.9886 18.692C46.5416 18.7902 46.9879 19.1997 47.1333 19.7423L56.5105 54.7387C56.7174 55.5108 56.2592 56.3043 55.4872 56.5112ZM53.3401 54.0899L44.5766 21.3843C34.2934 19.6341 26.1191 19.5785 19.9996 20.9555C14.0834 22.2866 10.1614 24.9435 8.28045 28.7608C6.77535 31.8155 6.59084 35.5676 7.60616 39.8492C9.18034 46.4879 13.6065 54.3143 20.7329 62.827L53.3401 54.0899Z" fill="black"/>
<path d="M57.1866 62.8556C61.4627 61.7099 64.0003 57.3146 62.8545 53.0385C61.7088 48.7624 57.3135 46.2247 53.0374 47.3705C48.7614 48.5163 46.2238 52.9116 47.3695 57.1877C48.5153 61.4638 52.9106 64.0014 57.1866 62.8556Z" fill="black"/>
<path d="M551.787 101.84C553.227 102.16 554.547 102.44 555.747 102.68C557.027 102.92 558.107 103.04 558.987 103.04C560.507 103.04 561.747 102.64 562.707 101.84C563.747 101.12 564.747 99.7596 565.707 97.7596C566.667 95.8396 567.667 93.1196 568.707 89.5996L543.867 26.7196H560.547L577.467 73.1596L592.347 26.7196H607.707L581.307 102.08C580.347 104.88 578.867 107.4 576.867 109.64C574.947 111.96 572.507 113.76 569.547 115.04C566.667 116.4 563.427 117.08 559.827 117.08C558.547 117.08 557.267 116.96 555.987 116.72C554.707 116.56 553.307 116.24 551.787 115.76V101.84Z" fill="black"/>
<path d="M515.309 1.9996H531.389V69.4396C531.389 72.3196 531.869 74.2796 532.829 75.3196C533.789 76.2796 535.109 76.7596 536.789 76.7596C538.069 76.7596 539.389 76.5996 540.749 76.2796C542.109 75.9596 543.309 75.5596 544.349 75.0796L546.509 87.3196C544.349 88.3596 541.829 89.1596 538.949 89.7196C536.069 90.2796 533.469 90.5596 531.149 90.5596C526.109 90.5596 522.189 89.2396 519.389 86.5996C516.669 83.8796 515.309 80.0396 515.309 75.0796V1.9996Z" fill="black"/>
<path d="M488.115 89.5996V72.3196H501.315V89.5996H488.115Z" fill="black"/>
<path d="M445.8 90.7996C440.76 90.7996 436.2 89.9596 432.12 88.2796C428.04 86.5196 424.56 84.1596 421.68 81.1996C418.8 78.1596 416.56 74.7196 414.96 70.8796C413.44 66.9596 412.68 62.8396 412.68 58.5196C412.68 52.5196 414 47.0396 416.64 42.0796C419.36 37.1196 423.2 33.1596 428.16 30.1996C433.2 27.1596 439.12 25.6396 445.92 25.6396C452.8 25.6396 458.68 27.1596 463.56 30.1996C468.44 33.1596 472.16 37.1196 474.72 42.0796C477.36 46.9596 478.68 52.2396 478.68 57.9196C478.68 58.8796 478.64 59.8796 478.56 60.9196C478.48 61.8796 478.4 62.6796 478.32 63.3196H429.72C430.04 66.5196 430.96 69.3196 432.48 71.7196C434.08 74.1196 436.08 75.9596 438.48 77.2396C440.96 78.4396 443.6 79.0396 446.4 79.0396C449.6 79.0396 452.6 78.2796 455.4 76.7596C458.28 75.1596 460.24 73.0796 461.28 70.5196L475.08 74.3596C473.56 77.5596 471.36 80.3996 468.48 82.8796C465.68 85.3596 462.36 87.3196 458.52 88.7596C454.68 90.1196 450.44 90.7996 445.8 90.7996ZM429.36 53.1196H462.24C461.92 49.9196 461 47.1596 459.48 44.8396C458.04 42.4396 456.12 40.5996 453.72 39.3196C451.32 37.9596 448.64 37.2796 445.68 37.2796C442.8 37.2796 440.16 37.9596 437.76 39.3196C435.44 40.5996 433.52 42.4396 432 44.8396C430.56 47.1596 429.68 49.9196 429.36 53.1196Z" fill="black"/>
<path d="M402.639 89.5996H386.559V54.3196C386.559 49.3596 385.679 45.7196 383.919 43.3996C382.239 40.9996 379.879 39.7996 376.839 39.7996C373.719 39.7996 370.719 41.0396 367.839 43.5196C365.039 45.9196 363.039 49.0796 361.839 52.9996V89.5996H345.759V54.3196C345.759 49.2796 344.879 45.5996 343.119 43.2796C341.439 40.9596 339.079 39.7996 336.039 39.7996C332.919 39.7996 329.919 40.9996 327.039 43.3996C324.239 45.7996 322.239 48.9596 321.039 52.8796V89.5996H304.959V26.7196H319.479V38.3596C321.879 34.2796 325.079 31.1596 329.079 28.9996C333.079 26.7596 337.679 25.6396 342.879 25.6396C348.079 25.6396 352.119 26.9196 354.999 29.4796C357.959 32.0396 359.839 35.1996 360.639 38.9596C363.199 34.6396 366.439 31.3596 370.359 29.1196C374.359 26.7996 378.839 25.6396 383.799 25.6396C387.719 25.6396 390.879 26.3596 393.279 27.7996C395.759 29.1596 397.679 31.0396 399.039 33.4396C400.399 35.7596 401.319 38.3996 401.799 41.3596C402.359 44.3196 402.639 47.3196 402.639 50.3596V89.5996Z" fill="black"/>
<path d="M240.303 101.84C241.743 102.16 243.063 102.44 244.263 102.68C245.543 102.92 246.623 103.04 247.503 103.04C249.023 103.04 250.263 102.64 251.223 101.84C252.263 101.12 253.263 99.7596 254.223 97.7596C255.183 95.8396 256.183 93.1196 257.223 89.5996L232.383 26.7196H249.063L265.983 73.1596L280.863 26.7196H296.223L269.823 102.08C268.863 104.88 267.383 107.4 265.383 109.64C263.463 111.96 261.023 113.76 258.063 115.04C255.183 116.4 251.943 117.08 248.343 117.08C247.063 117.08 245.783 116.96 244.503 116.72C243.223 116.56 241.823 116.24 240.303 115.76V101.84Z" fill="black"/>
<path d="M226.172 89.5996H210.092V54.3196C210.092 49.4396 209.132 45.7996 207.212 43.3996C205.372 40.9996 202.812 39.7996 199.532 39.7996C197.612 39.7996 195.572 40.3596 193.412 41.4796C191.252 42.5996 189.292 44.1596 187.532 46.1596C185.852 48.0796 184.612 50.3196 183.812 52.8796V89.5996H167.732V1.9996H183.812V38.3596C186.132 34.3596 189.292 31.2396 193.292 28.9996C197.292 26.7596 201.652 25.6396 206.372 25.6396C210.452 25.6396 213.772 26.3596 216.332 27.7996C218.892 29.1596 220.892 31.0396 222.332 33.4396C223.772 35.7596 224.772 38.3996 225.332 41.3596C225.892 44.2396 226.172 47.2396 226.172 50.3596V89.5996Z" fill="black"/>
<path d="M159.358 86.3596C157.998 86.9196 156.358 87.5596 154.438 88.2796C152.518 88.9996 150.438 89.5596 148.198 89.9596C146.038 90.4396 143.838 90.6796 141.598 90.6796C138.638 90.6796 135.918 90.1596 133.438 89.1196C130.958 88.0796 128.958 86.4396 127.438 84.1996C125.998 81.8796 125.278 78.8796 125.278 75.1996V39.0796H116.998V26.7196H125.278V6.31961H141.358V26.7196H154.558V39.0796H141.358V69.7996C141.438 71.9596 142.038 73.5196 143.158 74.4796C144.278 75.4396 145.678 75.9196 147.358 75.9196C149.038 75.9196 150.678 75.6396 152.278 75.0796C153.878 74.5196 155.158 74.0396 156.118 73.6396L159.358 86.3596Z" fill="black"/>
<path d="M281.956 117.514H279.076C278.716 117.514 278.596 117.304 278.716 116.884L283.456 98.854C283.596 98.434 283.896 98.224 284.356 98.224H288.346C288.846 98.224 289.146 98.434 289.246 98.854L293.986 116.884C294.106 117.304 293.986 117.514 293.626 117.514H290.746C290.526 117.514 290.376 117.474 290.296 117.394C290.216 117.294 290.156 117.124 290.116 116.884L289.276 113.584H283.426L282.586 116.884C282.546 117.124 282.476 117.294 282.376 117.394C282.296 117.474 282.156 117.514 281.956 117.514ZM286.306 101.854L284.146 110.524H288.586L286.426 101.854H286.306ZM307.145 117.514H297.275C296.855 117.514 296.645 117.304 296.645 116.884V98.854C296.645 98.434 296.855 98.224 297.275 98.224H299.825C300.245 98.224 300.455 98.434 300.455 98.854V113.854C300.455 114.074 300.575 114.184 300.815 114.184H307.145C307.545 114.184 307.745 114.404 307.745 114.844V116.884C307.745 117.304 307.545 117.514 307.145 117.514ZM320.622 117.514H310.752C310.332 117.514 310.122 117.304 310.122 116.884V98.854C310.122 98.434 310.332 98.224 310.752 98.224H313.302C313.722 98.224 313.932 98.434 313.932 98.854V113.854C313.932 114.074 314.052 114.184 314.292 114.184H320.622C321.022 114.184 321.222 114.404 321.222 114.844V116.884C321.222 117.304 321.022 117.514 320.622 117.514ZM336.16 117.514H333.64C333.2 117.514 332.98 117.304 332.98 116.884V101.854C332.98 101.634 332.87 101.524 332.65 101.524H329.23C328.81 101.524 328.6 101.314 328.6 100.894V98.854C328.6 98.434 328.81 98.224 329.23 98.224H340.57C340.99 98.224 341.2 98.434 341.2 98.854V100.894C341.2 101.314 340.99 101.524 340.57 101.524H337.15C336.91 101.524 336.79 101.634 336.79 101.854V116.884C336.79 117.304 336.58 117.514 336.16 117.514ZM346.671 117.514H344.121C343.701 117.514 343.491 117.304 343.491 116.884V98.854C343.491 98.434 343.701 98.224 344.121 98.224H346.671C347.091 98.224 347.301 98.434 347.301 98.854V105.904C347.301 106.124 347.421 106.234 347.661 106.234H352.731C352.951 106.234 353.061 106.124 353.061 105.904V98.854C353.061 98.434 353.271 98.224 353.691 98.224H356.241C356.661 98.224 356.871 98.434 356.871 98.854V116.884C356.871 117.304 356.661 117.514 356.241 117.514H353.691C353.271 117.514 353.061 117.304 353.061 116.884V109.864C353.061 109.644 352.951 109.534 352.731 109.534H347.661C347.421 109.534 347.301 109.644 347.301 109.864V116.884C347.301 117.304 347.091 117.514 346.671 117.514ZM371.216 117.514H361.406C360.986 117.514 360.776 117.304 360.776 116.884V98.854C360.776 98.434 360.986 98.224 361.406 98.224H371.216C371.616 98.224 371.816 98.434 371.816 98.854V100.894C371.816 101.314 371.616 101.524 371.216 101.524H364.946C364.706 101.524 364.586 101.634 364.586 101.854V105.754C364.586 105.974 364.706 106.084 364.946 106.084H370.076C370.496 106.084 370.706 106.294 370.706 106.714V108.754C370.706 109.174 370.496 109.384 370.076 109.384H364.946C364.706 109.384 364.586 109.494 364.586 109.714V113.884C364.586 114.104 364.706 114.214 364.946 114.214H371.216C371.616 114.214 371.816 114.424 371.816 114.844V116.884C371.816 117.304 371.616 117.514 371.216 117.514ZM381.243 112.594V111.994C381.243 111.574 381.453 111.364 381.873 111.364H384.423C384.843 111.364 385.053 111.574 385.053 111.994V112.234C385.053 112.994 385.203 113.514 385.503 113.794C385.803 114.074 386.353 114.214 387.153 114.214H388.563C389.343 114.214 389.883 114.064 390.183 113.764C390.503 113.464 390.663 112.904 390.663 112.084V111.724C390.663 111.144 390.423 110.704 389.943 110.404C389.483 110.084 388.903 109.894 388.203 109.834C387.503 109.774 386.743 109.664 385.923 109.504C385.123 109.324 384.373 109.104 383.673 108.844C382.973 108.564 382.383 108.034 381.903 107.254C381.443 106.454 381.213 105.434 381.213 104.194V103.144C381.213 101.584 381.653 100.374 382.533 99.514C383.413 98.654 384.633 98.224 386.193 98.224H389.193C390.773 98.224 392.003 98.654 392.883 99.514C393.763 100.374 394.203 101.584 394.203 103.144V103.714C394.203 104.134 393.993 104.344 393.573 104.344H391.023C390.603 104.344 390.393 104.134 390.393 103.714V103.534C390.393 102.754 390.243 102.224 389.943 101.944C389.643 101.664 389.093 101.524 388.293 101.524H387.123C386.303 101.524 385.743 101.684 385.443 102.004C385.163 102.304 385.023 102.904 385.023 103.804V104.374C385.023 105.314 385.843 105.854 387.483 105.994C389.183 106.134 390.693 106.474 392.013 107.014C392.713 107.314 393.293 107.854 393.753 108.634C394.233 109.394 394.473 110.374 394.473 111.574V112.594C394.473 114.154 394.033 115.364 393.153 116.224C392.273 117.084 391.053 117.514 389.493 117.514H386.223C384.663 117.514 383.443 117.084 382.563 116.224C381.683 115.364 381.243 114.154 381.243 112.594ZM410.705 98.224H415.145C415.565 98.224 415.775 98.434 415.775 98.854V116.884C415.775 117.304 415.565 117.514 415.145 117.514H412.685C412.265 117.514 412.055 117.304 412.055 116.884V102.664H411.935L408.875 112.714C408.755 113.114 408.505 113.314 408.125 113.314H405.605C405.225 113.314 404.975 113.114 404.855 112.714L401.735 102.634H401.615V116.884C401.615 117.124 401.575 117.294 401.495 117.394C401.415 117.474 401.245 117.514 400.985 117.514H398.525C398.105 117.514 397.895 117.304 397.895 116.884V98.854C397.895 98.434 398.105 98.224 398.525 98.224H402.995C403.275 98.224 403.465 98.364 403.565 98.644L406.745 109.234H406.925L410.135 98.644C410.195 98.364 410.385 98.224 410.705 98.224ZM421.673 117.514H418.793C418.433 117.514 418.313 117.304 418.433 116.884L423.173 98.854C423.313 98.434 423.613 98.224 424.073 98.224H428.063C428.563 98.224 428.863 98.434 428.963 98.854L433.703 116.884C433.823 117.304 433.703 117.514 433.343 117.514H430.463C430.243 117.514 430.093 117.474 430.013 117.394C429.933 117.294 429.873 117.124 429.833 116.884L428.993 113.584H423.143L422.303 116.884C422.263 117.124 422.193 117.294 422.093 117.394C422.013 117.474 421.873 117.514 421.673 117.514ZM426.023 101.854L423.863 110.524H428.303L426.143 101.854H426.023ZM446.862 117.514H436.992C436.572 117.514 436.362 117.304 436.362 116.884V98.854C436.362 98.434 436.572 98.224 436.992 98.224H439.542C439.962 98.224 440.172 98.434 440.172 98.854V113.854C440.172 114.074 440.292 114.184 440.532 114.184H446.862C447.262 114.184 447.462 114.404 447.462 114.844V116.884C447.462 117.304 447.262 117.514 446.862 117.514ZM460.339 117.514H450.469C450.049 117.514 449.839 117.304 449.839 116.884V98.854C449.839 98.434 450.049 98.224 450.469 98.224H453.019C453.439 98.224 453.649 98.434 453.649 98.854V113.854C453.649 114.074 453.769 114.184 454.009 114.184H460.339C460.739 114.184 460.939 114.404 460.939 114.844V116.884C460.939 117.304 460.739 117.514 460.339 117.514ZM469.427 112.594V111.994C469.427 111.574 469.637 111.364 470.057 111.364H472.607C473.027 111.364 473.237 111.574 473.237 111.994V112.234C473.237 112.994 473.387 113.514 473.687 113.794C473.987 114.074 474.537 114.214 475.337 114.214H476.747C477.527 114.214 478.067 114.064 478.367 113.764C478.687 113.464 478.847 112.904 478.847 112.084V111.724C478.847 111.144 478.607 110.704 478.127 110.404C477.667 110.084 477.087 109.894 476.387 109.834C475.687 109.774 474.927 109.664 474.107 109.504C473.307 109.324 472.557 109.104 471.857 108.844C471.157 108.564 470.567 108.034 470.087 107.254C469.627 106.454 469.397 105.434 469.397 104.194V103.144C469.397 101.584 469.837 100.374 470.717 99.514C471.597 98.654 472.817 98.224 474.377 98.224H477.377C478.957 98.224 480.187 98.654 481.067 99.514C481.947 100.374 482.387 101.584 482.387 103.144V103.714C482.387 104.134 482.177 104.344 481.757 104.344H479.207C478.787 104.344 478.577 104.134 478.577 103.714V103.534C478.577 102.754 478.427 102.224 478.127 101.944C477.827 101.664 477.277 101.524 476.477 101.524H475.307C474.487 101.524 473.927 101.684 473.627 102.004C473.347 102.304 473.207 102.904 473.207 103.804V104.374C473.207 105.314 474.027 105.854 475.667 105.994C477.367 106.134 478.877 106.474 480.197 107.014C480.897 107.314 481.477 107.854 481.937 108.634C482.417 109.394 482.657 110.374 482.657 111.574V112.594C482.657 114.154 482.217 115.364 481.337 116.224C480.457 117.084 479.237 117.514 477.677 117.514H474.407C472.847 117.514 471.627 117.084 470.747 116.224C469.867 115.364 469.427 114.154 469.427 112.594ZM492.049 117.514H489.529C489.089 117.514 488.869 117.304 488.869 116.884V101.854C488.869 101.634 488.759 101.524 488.539 101.524H485.119C484.699 101.524 484.489 101.314 484.489 100.894V98.854C484.489 98.434 484.699 98.224 485.119 98.224H496.459C496.879 98.224 497.089 98.434 497.089 98.854V100.894C497.089 101.314 496.879 101.524 496.459 101.524H493.039C492.799 101.524 492.679 101.634 492.679 101.854V116.884C492.679 117.304 492.469 117.514 492.049 117.514ZM509.25 98.224H511.77C512.21 98.224 512.43 98.424 512.43 98.824V112.624C512.43 114.184 511.99 115.394 511.11 116.254C510.25 117.094 509.04 117.514 507.48 117.514H504.18C502.6 117.514 501.38 117.094 500.52 116.254C499.66 115.414 499.23 114.204 499.23 112.624V98.854C499.23 98.434 499.44 98.224 499.86 98.224H502.41C502.83 98.224 503.04 98.434 503.04 98.854V112.444C503.04 113.084 503.17 113.544 503.43 113.824C503.71 114.084 504.16 114.214 504.78 114.214H506.85C507.49 114.214 507.94 114.084 508.2 113.824C508.48 113.544 508.62 113.084 508.62 112.444V98.854C508.62 98.434 508.83 98.224 509.25 98.224ZM519.347 117.514H516.797C516.377 117.514 516.167 117.304 516.167 116.884V98.854C516.167 98.434 516.377 98.224 516.797 98.224H526.367C526.767 98.224 526.967 98.434 526.967 98.854V100.894C526.967 101.314 526.767 101.524 526.367 101.524H520.337C520.097 101.524 519.977 101.634 519.977 101.854V106.504C519.977 106.744 520.097 106.864 520.337 106.864H525.467C525.887 106.864 526.097 107.074 526.097 107.494V109.504C526.097 109.944 525.887 110.164 525.467 110.164H520.337C520.097 110.164 519.977 110.274 519.977 110.494V116.884C519.977 117.304 519.767 117.514 519.347 117.514ZM532.853 117.514H530.303C529.883 117.514 529.673 117.304 529.673 116.884V98.854C529.673 98.434 529.883 98.224 530.303 98.224H539.873C540.273 98.224 540.473 98.434 540.473 98.854V100.894C540.473 101.314 540.273 101.524 539.873 101.524H533.843C533.603 101.524 533.483 101.634 533.483 101.854V106.504C533.483 106.744 533.603 106.864 533.843 106.864H538.973C539.393 106.864 539.603 107.074 539.603 107.494V109.504C539.603 109.944 539.393 110.164 538.973 110.164H533.843C533.603 110.164 533.483 110.274 533.483 110.494V116.884C533.483 117.304 533.273 117.514 532.853 117.514Z" fill="#561897"/>
</svg>
